<svg xmlns="http://www.w3.org/2000/svg" viewBox="0 0 1072.3 800.05"><defs><style>.cls-1{fill:#1f01f8;}.cls-2{fill:#1e00f8;}.cls-3{fill:none;}.cls-4{fill:#fff;}</style></defs><g id="Layer_2" data-name="Layer 2"><g id="Layer_1-2" data-name="Layer 1"><g id="Layer_2-2" data-name="Layer 2"><g id="Layer_2-2-2" data-name="Layer 2-2"><path class="cls-1" d="M160.3,751.58c-1.3,2.1-3.4,3.9-6.7,2.3-.2-.1-.4-1.3-.9-1.7a122.12,122.12,0,0,1-10.6-11,82.12,82.12,0,0,1-7.7-9.91c-2.3-3.8-.8-2.2-2.9-6.09-1.4-2.6-2.2-3.1-3.5-5.8-.8-1.7-1.6-3.41-2.2-5.1l-1.9-5.3c-.9-2.3-1.7-4.7-2.7-7a8.07,8.07,0,0,1,.9-8.8c.8-1.1,5.5-1.4,6.7-1,2,.6,1.5,2.5,1.3,3.9a20,20,0,0,0,.7,9.1,37,37,0,0,0,2.6,6.2c.8,1.5,1.6,3,3.1,5.9s2.9,5.8,4.5,8.6a27.85,27.85,0,0,0,2.6,3.4c.6.7,1.3,1.4,2.8,3.2,2.2,2.7,1.7,2.6,4.1,5.1a20.19,20.19,0,0,0,3.2,2.6c.2.2,1.7,1.6,1.9,1.9a20.35,20.35,0,0,0,2.5,2.6,10,10,0,0,1,2.9,2C161.9,747.47,162.4,749.18,160.3,751.58Z"/><path class="cls-1" d="M22.6,572a3.32,3.32,0,0,1-2.4,2.9c-1.5.5-3.9.5-7.3.3a1.42,1.42,0,0,1-.6-.2c-.1-.1-.2-.1-.3-.3s-.6-.3-.8-.2a2.84,2.84,0,0,0-1.8,2.7.75.75,0,0,0,.1.5v.3l.2.7c1,3.5,2.2,6.7,3.3,9.5a83.89,83.89,0,0,0,6.4,12.7c1.5,2.5,2.9,4.7,4.3,6.6s2.8,3.9,4.2,5.7a113.27,113.27,0,0,0,9.8,11c3.7,3.6,4.8,4.4,5.7,5.4.6.6,1.2,1.2,1.8,1.7,1.4,1.1,2.8,2.2,4.3,3.2a41.71,41.71,0,0,0,7,3.71A70,70,0,0,0,63.8,641q3.6,1.2,7.2,2.1c2.1.5,3.9.9,5.7,1.3s3.7.8,6,1.4a77.55,77.55,0,0,1,8.2,2.5,83.35,83.35,0,0,1,9.2,4.1c2.9,1.6,5.8,3.2,8.5,5,7.1,4.6,12.1,10.8,13.9,17.2.6,2.5-4,4-5.8,3.5-3.1-.8-5.3-4.6-7.3-7.2a46.5,46.5,0,0,0-17.9-14.1,51.94,51.94,0,0,0-9.5-3.09c-2.7-.6-4.9-1-7.2-1.41s-4.6-.8-7.5-1.5a64,64,0,0,1-10.5-3.3,82.86,82.86,0,0,1-22.6-14.9c-2.6-2.2-4.2-3.9-5.5-5.1s-2.2-2.2-3-3.09a83.37,83.37,0,0,1-7.5-9.1c-1.8-2.4-3.5-5-5.1-7.6-1.1-1.8-2.2-3.6-4.5-8l-2.6-5c-.7-1.3-1.4-2.6-2.6-5.1a32,32,0,0,1-1.3-3.5c-.5-1.6-1.1-3.2-1.2-3.6s-.3-1.1-.5-1.9a11.44,11.44,0,0,1-.3-4.5,11.1,11.1,0,0,1,1.2-4.3,10,10,0,0,1,1.6-2.4,11.46,11.46,0,0,1,4.1-3.5,10.6,10.6,0,0,1,4.6-1.3h1.3c.4,0,.8.1,1.2.1a11.63,11.63,0,0,1,1.8.4,13.1,13.1,0,0,1,5.9,2.9A3,3,0,0,1,22.6,572Z"/><path class="cls-1" d="M162.4,582.78c-.8,1.29-2.1,1.5-4-.21s-4.5-5.2-8.6-11.29a25.91,25.91,0,0,1-1.4-2.9,37.16,37.16,0,0,0-2.1-3.9,113,113,0,0,0-27.3-28.3,71.72,71.72,0,0,0-6.4-4.3c-2.1-1.3-4.1-2.4-5.9-3.4-.9-.5-1.8-1.1-2.7-1.5l-2.6-1.3c-1.6-.8-3.2-1.5-4.6-2.1-2.4-1.1-4.7-1.8-6.9-2.7l-3.3-1.1c-1.1-.3-2.1-.7-3.2-.9l-3.1-.8-3-.7c-2-.5-4-.8-6-1.1a131.53,131.53,0,0,0-26.6-1.4c-2.4.1-4.3.3-5.8.4l-1.1.1a2.48,2.48,0,0,0-.9.1c-.5.1-.9.1-1.3.2a17,17,0,0,0-3.2,1,11.53,11.53,0,0,0-4.9,4.1,14.44,14.44,0,0,0-1.8,4,18.41,18.41,0,0,0-.3,3.3c.1,1.1.2,2.1.4,3.2a27.22,27.22,0,0,0,1.8,5.5,71.7,71.7,0,0,0,6.9,12,97.12,97.12,0,0,0,8.6,10.6c1.3,1.4,2.5,2.7,3.7,3.9s2.3,2.4,3.5,3.5l3.7,3.5c1.3,1.1,2.6,2.3,4.1,3.6a100.18,100.18,0,0,0,11.1,8.3c4.4,3,9.3,5.8,14.1,9.1s9.3,6.7,13.7,10.3c11.3,9.1,19.8,19.4,24.4,29.6,1.7,3.9-3.7,4.4-6.4,2.8-4.5-2.6-9.1-9.3-13-13.9A137.28,137.28,0,0,0,87.6,605a105.69,105.69,0,0,0-8.3-6.7q-4.35-3.15-9-6a151.48,151.48,0,0,1-15.6-11c-2-1.6-3.9-3.1-5.5-4.5l-4.8-4.3c-1.6-1.4-3.1-2.9-4.7-4.5s-3.2-3.3-4.9-5.1l-2.7-3.2c-.9-1.1-1.8-2.3-2.8-3.6s-1.9-2.7-3-4.1a25.16,25.16,0,0,1-1.5-2.4,30,30,0,0,1-1.5-2.6,47.56,47.56,0,0,1-4.8-11.4,27.67,27.67,0,0,1-1.1-6.4,20.29,20.29,0,0,1,.7-6.9,21.49,21.49,0,0,1,7.7-11.2,19.53,19.53,0,0,1,6.1-3.1,19.81,19.81,0,0,1,3.3-.8l.8-.1.7-.1,1.5-.2c5.9-.6,10.1-.71,13.3-.8s5.5,0,7.7,0l3.5.2c1.3.1,2.6.2,4.2.4s3.4.4,5.6.7,4.7.8,7.6,1.5c2.1.4,4,1,5.5,1.4s2.9.9,4.1,1.3,2.2.7,3.2,1.1l2.7,1.1c1.8.6,3.5,1.4,5.8,2.4,1.2.5,2.4,1.1,3.9,1.8s3.2,1.5,5.1,2.6l5.1,2.8,3.6,2.2c1.1.7,2.3,1.3,3.6,2.2l4.9,3.4c.6.4,2.9,2.3,5.1,4.2a66.73,66.73,0,0,1,4.9,4.6c.5.5,1.3,1.4,2.4,2.6s2.4,2.6,3.6,4,2.6,2.9,3.5,4.1a33,33,0,0,0,2.2,2.7,81.43,81.43,0,0,1,10.2,14.4,42.53,42.53,0,0,1,3.9,9.9C164.3,580.38,163.9,582.38,162.4,582.78Z"/><path class="cls-1" d="M209.1,771.77c.1,2.41,0,5.2-1.3,6-.1,0-.4-.7-.6-.7-2.6-.2-4.4-.6-5.4-.7a31.17,31.17,0,0,1-4.4-.9c-1.5-.6-.6-.8-2-1.5-.9-.5-1.4-.2-2.4-.6a27.49,27.49,0,0,1-3.3-2.3,7,7,0,0,0-2.4-1.3c-1.2-.4-1.5-1.59-.2-4.2a36.31,36.31,0,0,1,4.7-4.9c1.5-1.2,1.1-.2,1.1.5a3.21,3.21,0,0,0,.8,3.1c1.5,1.2,1.9.8,3.6,1.6a20.13,20.13,0,0,0,2.5,1.4c1.4.4,1.2-.1,2.6.2,1,.2.8.4,1.8.4.6,0,.7-.2,1.3-.4h.8a1.23,1.23,0,0,0,1,.2C207.5,767.68,209.2,765.38,209.1,771.77Z"/><path class="cls-1" d="M302.2,751a3.81,3.81,0,0,1,3.6.3c1.2.8,2.1,2.41,2.4,5.1,0,.4-.8,1.8-.9,2.8a60.14,60.14,0,0,1-3.3,14.4c-.4,1-.8,1.8-1.1,2.7a12.09,12.09,0,0,1-1.2,2.3c-.6,1.3-1.4,2.5-2.1,3.7l-.8,1.3-.8,1.1c-.6.7-1.1,1.4-1.6,2.1-1.2,1.3-2.2,2.4-3.4,3.5a25.31,25.31,0,0,1-3.9,3.1,29.58,29.58,0,0,1-4.9,2.8c-.8.4-1.5.7-2.1,1l-1.5.4c-.8.2-1.3.3-1.7.4s-1,.2-1.7.3l-1.5.3a17,17,0,0,1-2.2.4c-1.2.2-2.2.4-3,.5l-2.4.3a19.42,19.42,0,0,1-2.4.2,15,15,0,0,1-3,0,43.63,43.63,0,0,1-8.8-1.4c-2.3-.6-4.6-1.3-8.4-2.6-3.5-1.3-7.3-2.7-10.8-4.3-4.6-2-8-5.5-8.9-10-.3-1.7,3.5-4.4,4.9-4.7,2.3-.4,3.6,1.8,4.8,3.3a24.71,24.71,0,0,0,10.8,7.7,40.37,40.37,0,0,0,9.6,2.7,63.46,63.46,0,0,0,9.7.8,33.25,33.25,0,0,0,13.6-2.2,22.11,22.11,0,0,0,3.4-1.8l1.8-1.3a11.37,11.37,0,0,0,1.6-1.5l1.2-1c.5-.4.9-1,1.5-1.6,3.2-3.7,3-3.1,5.4-7.4a9.87,9.87,0,0,0,1-2.7c.2-.8.4-1.5.7-2.9,0-.2.3-1,.5-1.8s.4-1.7.5-1.8a21.28,21.28,0,0,0,1.1-5,43.39,43.39,0,0,1,0-5.1C298.1,753.18,299,751.08,302.2,751Z"/><path class="cls-1" d="M470.2,721.08a2.59,2.59,0,0,1-1.5,3.3c-.1,0-.2.09-.3.09-1.8.8-5.3,1.21-10.9.21-1-.41-2-.8-3-1.3l-2.7-1.8a4.71,4.71,0,0,0,1.5,1.3,3.55,3.55,0,0,0,.9.4h.1l-.2-.1-.3-.2-.6-.3c-.4-.2-.8-.3-1.2-.5a118.11,118.11,0,0,1-15.2-6.2c-1.1-.6-2.2-1.1-3.3-1.7l-3.1-1.8c-1-.6-2-1.2-2.9-1.8l-2.7-1.8a138,138,0,0,1-15-12.5c-4.3-4.1-7.7-7.8-10.9-11.4-.4-.4-.8-.9-1.2-1.3l-.3-.3-.1-.2h0l-.2-.2c-.1-.1-.2-.3-.3-.3,0,.2-.1.4-.1.6h0l-.4,1.1c-.3.7-.5,1.4-.8,2-.5,1.2-.9,2.09-1.3,2.9a25.8,25.8,0,0,1-1.8,3.2c-.5.8-1.1,1.6-1.9,3.1a71.88,71.88,0,0,1-4.5,6.3,102.38,102.38,0,0,1-7.6,8.5,56.64,56.64,0,0,1-8.9,7.2,57.82,57.82,0,0,1-9.9,5.1,42.42,42.42,0,0,1-4.1,1.4c-1.3.4-2.6.6-3.9,1s-2.6.4-4,.6a30.48,30.48,0,0,1-4.4.29,93.46,93.46,0,0,1-10.7-.5l-11.8-1.2-3-.3h-.5a.75.75,0,0,0-.5.1s-.1,0,0,.1l.2.2a.3.3,0,0,1,0,.4v.1h0v.2a11,11,0,0,1,.2,1.8,20.48,20.48,0,0,1-.1,3.5,17,17,0,0,1-5.6,10.9c-1.3,1.1-2.6.41-3.5-.8a7.69,7.69,0,0,1-1.8-3.59c-.4-3.3,1.3-6.41.9-10.41a9.26,9.26,0,0,0-.4-1.59c-.1-.3-.1-.5-.2-.8l-.4-.8-.4-.8-.6-.9-.6-.9-.7-1c-1.9-2.6-4.1-5.5-6.3-8.3a13.06,13.06,0,0,0,2.3.3h1.1l.7.2,5.1,1.2c3.4.8,6.6,1.5,9.7,2l3.7.6,2.9.4c1.9.3,3.9.5,5.8.7,10.8,1.3,16.2,1.1,21.4-.3a29.07,29.07,0,0,0,3.9-1.2c.7-.3,1.4-.5,2.1-.8l2.2-1a61.58,61.58,0,0,0,21.5-17.4,52.47,52.47,0,0,0,7.7-13.4c.3-.91.6-1.71.9-2.41l.3-.8.3-.9.5-1.7c.3-1.1.5-2.2.7-3.2l.5-3c.6-3.8,1-6.5,1.3-9,.3,0,.8.8,1.2,1.3l1.3,1.7,3.1,4c.6.8,1.2,1.6,1.9,2.5l2.2,2.8,1.3,1.6,1.3,1.6c.6.7,1.2,1.4,1.9,2.2,3.9,4.4,5.7,6.2,7.4,8a92.19,92.19,0,0,0,7.9,7.4,66,66,0,0,0,10.9,7.5,67.17,67.17,0,0,0,7.4,4.2c.9.3,2.9,1.6,5.1,2.6s4.6,1.9,5.4,2.2c.3.1,1.2.3,2.5.7l2.1.6,1.2.3.6.2.3.1h.2l.3.1.5.2a3.91,3.91,0,0,1,1.7,1.4l-2.5-1.7a67.18,67.18,0,0,1,9,2.8C469,717.68,470.7,719.08,470.2,721.08Z"/><path class="cls-1" d="M512.7,728c2.4.41,5.1,1.21,5.3,3.41,0,.2-.8.4-1,.7a19.45,19.45,0,0,1-5,7.3,35.51,35.51,0,0,1-2.9,2.4,14.36,14.36,0,0,1-3.3,1.6c-2.5.7-1.4-.1-3.9.2-1.6.1-2,.7-3.7.6a15.46,15.46,0,0,1-3-.41c-.8-.2-1.6-.4-2.9-.8a27.44,27.44,0,0,0-3.9-.9c-1.7-.2-2.8-1.7-2.3-4.6.2-1.09,2.9-4.9,3.6-5.7,1.3-1.4,1.3-.3,1.5.41a4,4,0,0,0,2.5,3.09,7.46,7.46,0,0,0,2.6.41l2.6-.21a14.52,14.52,0,0,0,3.6-.2,2.51,2.51,0,0,0,1.3-.8,5.24,5.24,0,0,1,1.1-1c.9-.7,1-.4,1.7-1.4.4-.5.2-.7.3-1.4a3,3,0,0,1,.4-.8,3.59,3.59,0,0,0,.7-1c0-.1-.4-.9,0-1.3C508.3,727.47,509.5,727.18,512.7,728Z"/><path class="cls-1" d="M502.2,714.27a25,25,0,0,1,5.3,3s-.7-.2-.7-.09a8.59,8.59,0,0,0-.8,1.7c-.2.59-.1,1-.4,1.5s-.7,0-1,.4.2.6,0,.9c-.3.6-.6.6-.9,1.1a.91.91,0,0,0,0,1c.2.5-.6.5-3.1-.4-1-.41-5.1-2.41-6-3-1.6-.91-.7-.7-.1-.6,1.3.2,2,.1,2.3-.2.5-.7,0-1,.3-1.8.1-.4.7-.6.8-1,.2-.6-.2-.6,0-1.3s.3-.3.4-.8c0-.3-.2-.4-.3-.8,0,0,0-.3.1-.3s.4-.3.3-.4S496.4,711.38,502.2,714.27Z"/><path class="cls-1" d="M506.2,699.47c1.5,1.91,3.1,4.1,3.2,5.1,0,.1-.6-.4-.6-.4-.7.5-1.3,1-1.9,1.5s-.8,1-1.4,1.5-.7-.3-1.3.1c-.4.2-.2.7-.6,1-.7.5-.9.4-1.6.9a1.45,1.45,0,0,0-.7,1c-.1.7-1,.4-2.9-1.6a54.73,54.73,0,0,1-4.1-5.4c-1-1.6-.2-1,.4-.7q1.8,1,2.4.6c1-.6.7-1,1.6-1.8.4-.4,1.1-.4,1.5-.8.6-.6.2-.8.8-1.4s.5-.2.9-.7c.2-.3.1-.5.2-1,0-.1.3-.3.3-.3s.6-.2.6-.3C502.9,696.88,502.3,694.38,506.2,699.47Z"/><path class="cls-1" d="M423,611.77c1.5-2,4.2-3.09,7.9-.09.3.2.5,1.59,1.1,2.29,6.4,7.6,11.1,12.71,13.8,15.6,4.6,4.9,7.4,7.3,12,12.1,4.2,4.2,1.8,2.6,6,6.8,2.9,2.8,4,3.1,7.1,5.8,5.6,4.8,6.7,6.9,10.9,11.9a27.3,27.3,0,0,0,7.1,6,17.76,17.76,0,0,1,7.9,7.9c.7,1.4-1.8,5.4-3.1,6-2.3,1-4.6-1.1-6.1-2.7-3.4-3.5-6.9-7-10.1-10.4-1.7-1.8-3-3.3-4-4.5a26.16,26.16,0,0,0-2.7-2.9c-1.7-1.7-3.5-3.1-7.2-6.3s-7-6.9-10.5-10.3c-5.1-5.1-4.2-3.5-9.3-8.7-3.7-3.9-3-3.4-6.7-7.3a58.68,58.68,0,0,0-4.6-4.1,38.48,38.48,0,0,1-2.7-3c-.4-.6-2.9-3.6-3.4-4.1C425.7,621.18,417.8,615.68,423,611.77Z"/><path class="cls-1" d="M387.7,511.47c1.6-1.9,4.2-3.1,7.5-.29.2.2.3,1.5.8,2.1,5.2,7.1,8.5,12.29,10.4,15.29a133.42,133.42,0,0,1,7.7,13.11c2.3,4.79.7,2.79,2.9,7.6,1.4,3.29,2.3,4,3.6,7.4,2.3,5.89,2.5,7,4.4,13,.9,2.89,1.8,5.79,2.9,8.6a11.37,11.37,0,0,1-.5,10.6c-.8,1.3-5.5,1.5-6.7,1-2.1-.9-1.6-3.2-1.5-4.8a31.42,31.42,0,0,0-1.1-11.4,57.66,57.66,0,0,0-2.9-7.9c-.9-2-1.7-4-3.4-7.7s-2.9-7.6-4.8-11.2c-2.9-5.4-2.5-3.9-5.6-9.1-2.3-3.8-1.8-3.4-4.3-7.1a30.23,30.23,0,0,0-3.3-3.9c-.2-.3-1.8-2.4-2-2.71a30.8,30.8,0,0,0-2.5-3.7C389.1,519.88,382.5,515.38,387.7,511.47Z"/><path class="cls-1" d="M170.8,554.18c2.4-.61,5.1-1.11,6.1-.61.1,0-.6.4-.6.5.2,1,.5,2.11.8,3.11a24.27,24.27,0,0,1,1,2.39c.3,1-.4.61-.2,1.5.1.61.7.61.9,1.21.4,1,.2,1.29.6,2.29a2.38,2.38,0,0,0,.9,1.3c.7.4.2,1.3-2,2.9a37.56,37.56,0,0,1-6.2,2.7c-1.8.5-1.1-.29-.7-.79a3.31,3.31,0,0,0,.9-2.8c-.5-1.5-1-1.5-1.6-2.9-.3-.7-.2-1.6-.5-2.4-.4-1.1-.7-.7-1.2-1.8-.3-.8-.1-.8-.4-1.6-.2-.4-.5-.4-.9-.8a1.42,1.42,0,0,1-.2-.6,1.41,1.41,0,0,0-.1-.9C167.2,556.57,164.5,555.57,170.8,554.18Z"/><path class="cls-1" d="M164.9,127.88c1.1,1.2.7,2.6-2.2,3.6-1.5.6-3.6,1.2-6.3,2.1a33.36,33.36,0,0,0-4.4,1.7,21.34,21.34,0,0,0-4.6,2.7,23.48,23.48,0,0,0-2.5,1.9,8.66,8.66,0,0,0-2.2,3.5,18.79,18.79,0,0,0-.7,6.3c0,1.1.2,2.3.3,3.4a23.34,23.34,0,0,0,.6,3.5,128.71,128.71,0,0,0,3.4,13.6c2.6,8.7,5.4,16.7,7.7,23.9s4.8,13.4,7,19c1.1,2.7,2.1,5.3,3.1,7.7l1,2.4a11.11,11.11,0,0,0,.7,1.6l.3.8c.1.1,0,.3,0,.4l-.2.4-1.8,4.8c-5.1,13.6-8.6,24.39-11.7,35.2s-5.8,21.8-8.5,36c-1.3,6.39-1.9,10.5-2.5,13.3s-.9,4.5-1.2,6.2-.6,3.39-1,6.19-1.1,7-1.6,13.5c-.9,8.8-.9,14.4-1.1,20-.1,2.8,0,5.61,0,8.8v11.2c.3,7.71.3,13.8.7,19.11.2,2.6.3,5.1.5,7.39.1,1.21.2,2.3.2,3.5l.3,3.4c.5,4.5.9,9,1.6,14.21s1.6,11.29,3.1,18.89c1.3,7.3,3,14.5,4.8,21.61s3.9,14.2,6.3,21.2c2.7,7.9,5.2,15.4,7.7,22.5,1.2,3.6,2.3,7.1,3.4,10.5.5,1.7,1,3.4,1.5,5,.2.8.5,1.6.7,2.5l1.2,3.6-1,1.9-.5.9c-.2.29-.3.6-.4.7l-1.4,2.2c-3.1,4.7-5.8-.8-5.3-4.9v-.4l-.1-.1-.2-.2-.2-.1h-.2s0,.1-.2-.2c-.4-.8-.9-1.71-1.3-2.6-.8-1.8-1.6-3.71-2.4-5.71-1.5-3.9-2.7-8-3.8-11.5-5.5-18.1-10.6-37.7-14.7-57-4.3-20.7-5.4-31.9-6.9-43-.4-2.79-.6-5.6-.8-8.6s-.5-6.1-.8-9.5-.3-7.2-.4-11.4c0-2.1-.2-4.29-.2-6.7v-7.5a403.63,403.63,0,0,1,6.1-63c2.8-15.6,4.2-21.4,5.4-27.3.7-2.9,1.4-5.8,2.4-9.9.5-2.1,1.2-4.4,1.9-7.2l1.3-4.5c.5-1.6,1-3.4,1.6-5.3,3.4-11.1,5.3-15.7,7-20.4.4-1.2.9-2.3,1.4-3.6s1-2.5,1.6-4l.2-.4.1-.2v-.2c-.2-.6-.5-1.1-.8-1.8-.8-2-1.8-4.3-2.9-7l-5-12.4c-1.3-3.2-2.6-6.4-4.8-12.5-.6-1.7-5-14.7-5.4-16.6-.5-1.6-1.9-6.4-3.1-11.4a82.76,82.76,0,0,1-2.1-12.1c0-.2-.1-.6-.1-1.2s0-1.3-.1-2.1a13.1,13.1,0,0,1,0-2.8c.1-1.2.2-2.4.4-3.5a20.84,20.84,0,0,1,11-14.5,28.39,28.39,0,0,1,15.1-3.1C162.9,125.08,165.2,126.28,164.9,127.88Z"/><path class="cls-1" d="M383.1,436.78c2.3-.8,5.1-1,6.5,1.4.1.2-.5,1-.4,1.39,1,5.3,1.5,9.11,1.8,11.3q.75,4.65,1.2,9.3c.1,3.3-.5,1.7-.4,5,0,2.2.5,2.8.5,5,0,3.9-.3,4.5-.5,8.4a52.3,52.3,0,0,0,0,5.6c.2,2.4-.7,4.5-3.6,5.9-1.1.5-5.6-.5-6.7-1.1-1.7-1-.6-2.2,0-3.1a13.72,13.72,0,0,0,2.5-6.7c.4-4.9-.1-5.3-.2-10.3-.1-2.5.3-5,0-7.4-.3-3.7-.6-2.8-1.1-6.4-.4-2.7-.1-2.3-.6-5a12.13,12.13,0,0,0-1.1-3,14.16,14.16,0,0,1-.4-2,12.41,12.41,0,0,0-.3-2.7C380,442.18,376.8,438.07,383.1,436.78Z"/><path class="cls-1" d="M389.8,284c1.9-1.6,4.9-2,8,3.2.2.39.1,2.1.5,3.1a145.2,145.2,0,0,1,6.7,25.1c.7,4.1,1.1,7.3,1.4,10.6a76,76,0,0,1,.4,10.7c0,1.3-.1,2.6-.2,3.9-.1.8-.2,1.3-.3,1.8-.2,1-.3,1.9-.8,5.7-.2,2.6-.4,4.1-.5,5.7-.1.8-.1,1.6-.2,2.6s-.3,2-.5,3.2c-.4,2.2-.8,3.9-1.2,5.4s-.7,2.7-1.1,4c-.7,2.5-1.5,4.9-3,9.1s-3,8-4.4,11.9c-1.8,5.1-4.9,9.1-9.3,11.2-1.7.8-5-2.6-5.4-4-.7-2.4,1.6-4.5,3.1-6.2a42.92,42.92,0,0,0,8-13.3l1.3-3.5c.3-1.1.6-2,.9-2.9.6-1.7.8-3.2,1.2-4.6.7-2.9,1.2-5.8,2.2-11.3a131.79,131.79,0,0,0,1.9-16.6c0-2.4-.1-4.9-.3-7.3-.2-1.6-.3-3.1-.8-7.3-.3-3-.5-4.3-.6-5.6a36.58,36.58,0,0,0-1-5.6,21.85,21.85,0,0,0-1-3.4l-1.2-3.3c-.1-.5-1.2-3.9-1.3-4.4a55.38,55.38,0,0,0-1.7-5.8,34.65,34.65,0,0,1-2.6-5.5C387,288,386.8,285.28,389.8,284Z"/><path class="cls-1" d="M434.8,147.88c2.3-.9,5.3-.4,6.6,5.6.1.4-.6,2.1-.5,3.1a128.92,128.92,0,0,1-1.9,26.3c-.7,4.19-1.5,7.4-2.3,10.6a94.85,94.85,0,0,1-3.3,10.3c-3,7.1-2,3.5-5.3,10.3-1.3,2.2-1.9,3.8-2.6,5.2a41.6,41.6,0,0,1-2.8,5.1,83.86,83.86,0,0,1-5.7,8l-2.6,3.2c-1,1.1-2.1,2.6-3.7,4.2-2.9,3.2-5.9,6.3-8.8,9.4-3.8,4-8.3,6.6-13.2,6.7-1.9,0-3.6-4.4-3.3-5.9.4-2.6,3.3-3.5,5.3-4.5a39.79,39.79,0,0,0,12.7-9.2,70,70,0,0,0,7.3-9c.8-1.3,1.6-2.6,2.6-4l1.6-2.6c.6-1,1.3-2,1.9-3.2a105.6,105.6,0,0,0,7.8-14.9c.8-2,1.2-3.4,1.6-4.4a10.15,10.15,0,0,0,.7-2.6c.3-1.6.8-3.1,1.8-7.2a85.26,85.26,0,0,0,2.2-11.2,42.13,42.13,0,0,0,.2-7.1c0-.5.2-4.1.2-4.6a41.47,41.47,0,0,0,.2-6.1,30.69,30.69,0,0,1-.7-6C430.9,150.88,431.5,148.18,434.8,147.88Z"/><path class="cls-1" d="M516.1,36.68a3.54,3.54,0,0,1,3.7.3c1.2.9,2.3,2.6,2.9,5.9.1.5-.6,2.3-.6,3.4a75.08,75.08,0,0,1-2,17.7,60.27,60.27,0,0,1-3.7,11.1,65.35,65.35,0,0,1-3,5.9,40.1,40.1,0,0,1-3.4,5,75.67,75.67,0,0,1-8.3,8.7,45.37,45.37,0,0,1-4.8,3.9,43.7,43.7,0,0,0-4.8,3.7c-4.1,3.5-4.9,4.8-9.1,8.2-7.2,6-8.6,6.8-15.9,12.7-3.5,2.8-7,5.7-10.2,8.8a28.48,28.48,0,0,1-2.6,2.3l-.1.1h-.4c-.5-.8-.9,3.7-2.2,6.1-.8,1.8-5.6,1.1-6.8,0a4.75,4.75,0,0,1-1.5-3.6c0-1.1-.1-2.1-.1-3.2v-3.6l.1-.1,3.4-2.2.8-.5.4-.3.2-.1.1-.1,1-.5c1.3-.7,2.6-1.5,3.8-2.3q3.75-2.4,7.2-5.1c9.8-7.8,10.1-8.7,19.7-16.8,4.8-4.1,9.8-7.8,14.4-12a62.52,62.52,0,0,0,5.7-5.8,67.19,67.19,0,0,0,4.7-6,36,36,0,0,0,2.9-5,37.62,37.62,0,0,0,2.3-5.5,23.69,23.69,0,0,0,.9-3.6c.2-1,.2-1.9.5-3.7,0-.3.2-1.3.4-2.4s.3-2.1.4-2.4.3-1.8.5-3.2c.1-1.1.2-2.2.2-3.2-.3-2.2-.5-4.3-.6-6.5a14.92,14.92,0,0,1,.2-2.1,6,6,0,0,1,.6-1.9A3.21,3.21,0,0,1,516.1,36.68Z"/><path class="cls-1" d="M510,19.28c2.4,0,5.1.4,6,1.7,0,.09-.7.4-.7.59-.3,2.6-.5,4.5-.6,5.5a35.7,35.7,0,0,1-.4,4.6c-.3,1.6-.7.7-1.1,2.3-.3,1.1.2,1.4-.1,2.5a29.72,29.72,0,0,1-1.3,3.9,6.26,6.26,0,0,0-.3,2.7c.1,1.2-.9,2.1-3.8,2.1a34.26,34.26,0,0,1-6.4-2.1c-1.6-.9-.6-1.2.1-1.5A4.53,4.53,0,0,0,504.2,39c.7-2.3.2-2.6.7-4.91.2-1.2.8-2.2,1-3.4.2-1.8-.2-1.4-.1-3.1a9.8,9.8,0,0,0,.3-2.4c0-.69-.2-.8-.5-1.5v-1a2.77,2.77,0,0,0,.3-1.3C505.8,21.18,503.6,18.88,510,19.28Z"/><path class="cls-1" d="M495.5,9.88c2.3-.7,5-1.4,6-1,.1,0-.6.4-.6.5.3,1.4.5,2.4.6,2.9a10.55,10.55,0,0,1,.6,2.4c0,.9-.6.5-.6,1.4,0,.6.5.7.5,1.3s-.2,1.5-.3,2.2a2.06,2.06,0,0,0,.3,1.5c.4.7-.4,1.2-3.1,1.3-2.2-.2-4.5-.5-6.7-.9-1.8-.4-.8-.5-.3-.7,1.3-.3,2-.8,2-1.3.2-1.1-.3-1.1-.5-2.2-.1-.5.3-1.1.2-1.6-.2-.8-.5-.5-.7-1.3-.2-.5.1-.5-.2-1-.1-.3-.4-.3-.8-.5a1.47,1.47,0,0,1-.2-.4c0-.1.1-.5,0-.6S489.3,11.68,495.5,9.88Z"/><path class="cls-1" d="M341.6,101a4.61,4.61,0,0,1,3.6.6,5.83,5.83,0,0,1,2.2,4.6c0,.4-.8,1.6-.9,2.4a73,73,0,0,1-5.7,20.4c-.4.8-.7,1.5-1,2.2l-1,2c-.6,1.3-1.3,2.4-1.9,3.6s-1.4,2.3-2.2,3.5-1.8,2.5-2.8,3.7a23.91,23.91,0,0,1-2.2,2.3c-.4.3-.8.7-1.2,1-.7.5-1.3,1-3.6,3l-3.4,3.2a19.2,19.2,0,0,0-1.5,1.4c-.6.5-1.3,1-2.1,1.6a20.65,20.65,0,0,1-2.1,1.4l-1.8,1c-1.1.6-2,1.1-3,1.6l-3,1.4c-1.2.4-2.5,1-4.1,1.69-3.2,1.31-6.4,2.31-9.7,3.41-4.2,1.4-8.4,1.3-11.8-1.31-1.3-1-.6-5.6,0-6.8,1.2-1.9,3.4-1.3,5.1-1a25.28,25.28,0,0,0,11.9-1.1,38.75,38.75,0,0,0,8-3.7c2-1.2,3.9-2.5,7.3-4.9a59.62,59.62,0,0,0,9.6-8.5,29.1,29.1,0,0,0,3.2-4.6c.6-1,1.2-2.09,2.8-4.9,1-2.1,1.6-2.9,2-3.9a28.26,28.26,0,0,0,1.7-4,11.07,11.07,0,0,0,.7-2.6c.1-.7.2-1.4.4-2.7a16.47,16.47,0,0,1,.4-1.7c.2-.8.3-1.5.4-1.7a24.24,24.24,0,0,0,1-4.5,23.58,23.58,0,0,1,.1-4.6,4.17,4.17,0,0,1,4.3-3.8C341.4,101,341.5,101,341.6,101Z"/><path class="cls-1" d="M486.9,5c2.1,1.4,2.7,4.4-3,9.8-.4.4-2.6,1-3.7,1.8-13.4,9.7-23.1,16.1-28.7,19.7-4.7,3-8.4,5.4-12.1,7.7s-7.5,4.5-12.7,7.1a46,46,0,0,1-7.2,3.1c-.7.2-1.3.4-2.4.8s-2.7,1-5,1.8c-6.3,2.4-7.8,3.5-14,6-5.5,2.2-8.7,3.4-11.9,4.6s-6.5,2.4-11.8,4.6a55.8,55.8,0,0,0-6.9,3.5,45.08,45.08,0,0,0-6,4.8c-4.7,4.6-8.9,8.7-14.1,11.6-2,1.1-5.1-2.6-5.1-4.5,0-3.3,3.6-6.4,6.2-8.5a105.07,105.07,0,0,1,19.7-12.7c3.7-1.7,6.6-2.8,9-3.9l6.2-2.6c3.9-1.6,7.7-3.3,15.1-6.3q5.55-2.25,11.1-4.2c1.9-.7,3.6-1.3,5.4-2.1s3.5-1.5,5.3-2.4a95.84,95.84,0,0,0,8.9-4.9c1.9-1.2,3.7-2.4,8.7-5.4,3.6-2.3,5.2-3.2,6.8-4.2s3.1-1.9,6.7-4.3a91,91,0,0,0,7.8-6.1c.5-.4,4.7-3.4,5.3-3.8,1.1-.7,6.2-4.1,7.2-4.9a49.49,49.49,0,0,1,6.7-5.4C481.6,3.58,485.2,2.28,486.9,5Z"/><path class="cls-1" d="M187.1,135.88c.6-2.4,2.3-4.6,6.1-3.9.3,0,.9,1.1,1.5,1.5,7.1,3.5,12.1,6,14.9,7.5,4.7,2.5,7.5,3.7,12.1,6.4,4.1,2.5,1.8,1.8,5.9,4.2,2.7,1.6,3.7,1.6,6.4,3.1,4.8,2.6,5.5,3.2,10.4,5.5a46.63,46.63,0,0,0,7.4,2.7,10.2,10.2,0,0,1,7.4,5.8c.6,1.3-1.5,5.5-2.6,6.3-1.8,1.4-3.5-.2-4.7-1.3a42,42,0,0,0-9.2-5.8c-3.5-1.6-5.4-2.4-7.2-3.2a67.37,67.37,0,0,1-7.2-3.4c-3.4-1.8-6.4-4.1-9.7-5.9-4.9-2.7-3.9-1.7-8.9-4.3-3.6-1.9-3-1.8-6.7-3.6a29.8,29.8,0,0,0-4.5-1.6c-.9-.4-1.9-.8-2.8-1.3a31.25,31.25,0,0,0-3.6-1.9C191.6,142.48,184.2,141.58,187.1,135.88Z"/><path class="cls-2" d="M212.3,711.18c-3.2,7.5-10.8,9.9-12.1,10.29a20.14,20.14,0,0,1-14.1-1.2,26.24,26.24,0,0,1-5.1-3,27.2,27.2,0,0,1-7.4-8.8,14,14,0,0,1-1.7-3.5,41.17,41.17,0,0,1-1.8-20.29,1.71,1.71,0,0,1,1.4-1.41,46.24,46.24,0,0,1,30.1,5,29.2,29.2,0,0,1,5,3.1,18.14,18.14,0,0,1,6.8,10.3A16.26,16.26,0,0,1,212.3,711.18Z"/><path class="cls-3" d="M212.5,711.08c-.6.1-1-.2-1.2-1.2s.1-2.6-.1-5.3a12.19,12.19,0,0,0,0-2.7,13.71,13.71,0,0,0-3.9-6.8,8.64,8.64,0,0,0-1.4-1.3l-.7-.6-.7-.5a16.92,16.92,0,0,0-2.9-1.7,53.8,53.8,0,0,0-9.5-4.2,38,38,0,0,0-10.6-1.8,41.31,41.31,0,0,0-5,.1,12.41,12.41,0,0,0-2.7.3l-1.4.2h-.3a2.8,2.8,0,0,0-.2.8,10.06,10.06,0,0,0-.2,1.5,16.24,16.24,0,0,0-.2,1.8,27.15,27.15,0,0,0,0,5.7,28.67,28.67,0,0,0,1.1,5.7,22.5,22.5,0,0,0,.8,2.4,13.9,13.9,0,0,0,1.2,2.8,34.86,34.86,0,0,0,5.5,7.7,26.63,26.63,0,0,0,3.1,2.6,30.35,30.35,0,0,0,4.7,2.5,18,18,0,0,0,11.9.4,26.23,26.23,0,0,0,6.4-3.4,25.11,25.11,0,0,0,4.8-4.4c1.1-1.3,2.4.5,2.2,2a7.63,7.63,0,0,1-2.1,3.7,20.8,20.8,0,0,1-3.6,2.9,25.19,25.19,0,0,1-8.8,3.2,23,23,0,0,1-9.4-.5,34.47,34.47,0,0,1-4.2-1.4,24.8,24.8,0,0,1-3.2-1.7,27.06,27.06,0,0,1-8.1-7.7c-.6-.91-1.3-1.91-1.9-2.91a21.05,21.05,0,0,1-2-4,40.73,40.73,0,0,1-1.6-19.3,5.94,5.94,0,0,1,.2-1,3.52,3.52,0,0,1,.4-1.09,2.93,2.93,0,0,1,1.6-1.3,3,3,0,0,1,1-.2l.6-.1,1-.2c1.3-.2,2.2-.3,3.1-.4a25.17,25.17,0,0,1,3.1-.21,48.86,48.86,0,0,1,5.4.3,46.74,46.74,0,0,1,6.5,1.3q3.15.9,6.3,2.1c1.8.8,2.8,1.3,3.8,1.7s1.8.9,3.6,1.8c.8.5,1.6,1,2.4,1.6,1,.8,1.9,1.6,2.1,1.8a34.67,34.67,0,0,1,2.5,2.9,21.69,21.69,0,0,1,1.9,3.3,20.29,20.29,0,0,1,1.1,2.6,13.75,13.75,0,0,1,.6,4.9,11.1,11.1,0,0,1-1.2,4.4C213.8,710.88,213.2,711.38,212.5,711.08Z"/><ellipse class="cls-4" cx="192.92" cy="705.35" rx="2.5" ry="2.8" transform="translate(-490.54 445.3) rotate(-53.87)"/><path class="cls-4" d="M190.5,703.68l1.2.9a2.18,2.18,0,0,0,.8.5h-.2a.55.55,0,0,0,.2.5,1.38,1.38,0,0,0,.4.3h.5s.2.2.3,0-.2-.2-.2-.2a.84.84,0,0,0-.4-.71.5.5,0,0,0-.5,0c-.1.21,0-.2-1.2-.7-.4-.2-2-1.3-2.1-1.9-.3-.9.8-1.3,1.4-1.2a8,8,0,0,1,3.4.7,5.86,5.86,0,0,1,1.9,1.3,3.6,3.6,0,0,1,1.1,2.1,3.77,3.77,0,0,1-1.4,3.3,6.38,6.38,0,0,1-1.4.8,3,3,0,0,1-1.6.2,2.66,2.66,0,0,1-1.2-.3,8.79,8.79,0,0,1-1-.6,14.63,14.63,0,0,1-1.3-.9,4.05,4.05,0,0,1-.5-.9c-.1-.5-.2-.9-.3-1.4a2,2,0,0,1,0-1.5C188.7,703.08,189.5,702.77,190.5,703.68Z"/><path class="cls-1" d="M911.9,48.58c1.3-2.1,3.4-3.9,6.7-2.3.2.1.4,1.3.9,1.7a122.12,122.12,0,0,1,10.6,11,82,82,0,0,1,7.7,9.9c2.3,3.8.8,2.2,2.9,6.1,1.4,2.6,2.2,3.1,3.5,5.8a48.21,48.21,0,0,1,2.2,5.1c.6,1.4,1,2.9,1.9,5.3s1.7,4.7,2.7,7a8.07,8.07,0,0,1-.9,8.8c-.8,1.1-5.5,1.4-6.7,1-2-.6-1.5-2.5-1.3-3.9a20,20,0,0,0-.7-9.1,37,37,0,0,0-2.6-6.2l-3.1-5.9q-2.1-4.35-4.5-8.4a27.85,27.85,0,0,0-2.6-3.4c-.6-.7-1.3-1.4-2.8-3.2-2.2-2.7-1.7-2.6-4.1-5.1a20.19,20.19,0,0,0-3.2-2.6c-.2-.2-1.7-1.6-1.9-1.9a19.47,19.47,0,0,0-2.4-2.6,10,10,0,0,1-2.9-2C910.3,52.78,909.8,51.08,911.9,48.58Z"/><path class="cls-1" d="M1049.6,228.18a3.32,3.32,0,0,1,2.4-2.9c1.5-.5,3.9-.5,7.3-.3a1.42,1.42,0,0,1,.6.2c.1.1.2.1.3.3s.6.3.8.2a3.11,3.11,0,0,0,1.6-1.61,2,2,0,0,0,.2-1.1v-.8l-.2-.7c-1-3.5-2.2-6.7-3.3-9.5a100,100,0,0,0-6.3-12.7,69.13,69.13,0,0,0-4.3-6.6q-2.1-3-4.2-5.69a101.66,101.66,0,0,0-9.8-11c-3.7-3.6-4.7-4.41-5.7-5.41-.6-.59-1.2-1.19-1.8-1.69-1.4-1.1-2.8-2.2-4.3-3.2a42.41,42.41,0,0,0-7-3.7,72,72,0,0,0-7.3-2.8q-3.6-1.2-7.2-2.1c-2.1-.5-3.9-.9-5.7-1.3s-3.7-.8-6-1.4a77.55,77.55,0,0,1-8.2-2.5,83.35,83.35,0,0,1-9.2-4.1c-2.9-1.6-5.8-3.2-8.5-5-7.1-4.6-12.1-10.8-13.9-17.2-.6-2.5,4-4,5.8-3.5,3.1.8,5.3,4.6,7.3,7.2a46.5,46.5,0,0,0,17.9,14.1,52.75,52.75,0,0,0,9.5,3.1c2.7.59,4.9,1,7.2,1.4s4.6.8,7.5,1.5a64.32,64.32,0,0,1,10.5,3.4,82.86,82.86,0,0,1,22.6,14.9c2.6,2.2,4.2,3.9,5.5,5.1s2.2,2.2,3,3.1a82.43,82.43,0,0,1,7.5,9.1,77.62,77.62,0,0,1,5,7.59c1.1,1.81,2.2,3.6,4.5,8,1.3,2.41,2,3.7,2.6,5s1.4,2.6,2.6,5.1a32,32,0,0,1,1.3,3.5c.6,1.6,1.1,3.21,1.2,3.6s.3,1.11.5,1.9a11.44,11.44,0,0,1,.3,4.5,13.35,13.35,0,0,1-1.3,4.3,14.31,14.31,0,0,1-1.6,2.4,11.46,11.46,0,0,1-4.1,3.5,10.6,10.6,0,0,1-4.6,1.3h-1.3c-.4,0-.8-.1-1.2-.1a11.63,11.63,0,0,1-1.8-.4,13.1,13.1,0,0,1-5.9-2.9C1049.2,231,1048.8,229.57,1049.6,228.18Z"/><path class="cls-1" d="M909.8,217.38c.8-1.31,2.1-1.5,4,.19s4.5,5.2,8.6,11.31a24.94,24.94,0,0,1,1.4,2.89,36.19,36.19,0,0,0,2.1,3.9A113,113,0,0,0,953.2,264a71.72,71.72,0,0,0,6.4,4.3c2.1,1.3,4.1,2.4,5.9,3.4.9.5,1.8,1.1,2.7,1.5l2.6,1.3c1.6.8,3.2,1.5,4.6,2.1,2.4,1.11,4.7,1.81,6.9,2.7l3.3,1.11c1.1.3,2.1.69,3.2.89l3.1.8,3,.7c2,.5,4,.8,6,1.11a124.65,124.65,0,0,0,26.5,1.3c2.4-.11,4.3-.3,5.8-.4l1.1-.1a2.27,2.27,0,0,0,.9-.11c.5-.1.9-.1,1.3-.19a17.78,17.78,0,0,0,3.2-1,11.55,11.55,0,0,0,4.9-4.11,14.44,14.44,0,0,0,1.8-4,18.41,18.41,0,0,0,.3-3.3c-.1-1.1-.2-2.1-.4-3.2a27.43,27.43,0,0,0-1.8-5.5,66.63,66.63,0,0,0-6.9-11.89,97.23,97.23,0,0,0-8.6-10.61c-1.3-1.39-2.5-2.7-3.7-3.89s-2.3-2.4-3.5-3.5l-3.7-3.4c-1.3-1.1-2.6-2.3-4.1-3.6a100.26,100.26,0,0,0-11.1-8.31c-4.4-3-9.3-5.8-14.1-9.09s-9.3-6.7-13.7-10.31c-11.3-9.1-19.8-19.4-24.4-29.6-1.7-3.9,3.7-4.4,6.4-2.8,4.5,2.6,9.1,9.3,13,13.9a137.77,137.77,0,0,0,14.5,15.1,105.69,105.69,0,0,0,8.3,6.7q4.35,3.15,9,6a151.48,151.48,0,0,1,15.6,11c2,1.6,3.8,3.1,5.5,4.5l4.8,4.3c1.6,1.4,3.1,2.9,4.7,4.5s3.2,3.3,4.9,5.11l2.7,3.1c.9,1.1,1.8,2.3,2.8,3.6s1.9,2.7,3,4.1a25.16,25.16,0,0,1,1.5,2.4,30,30,0,0,1,1.5,2.6,53.08,53.08,0,0,1,4.9,11.5,27.67,27.67,0,0,1,1.1,6.4,20.29,20.29,0,0,1-.7,6.9,21.49,21.49,0,0,1-7.7,11.2,22.1,22.1,0,0,1-9.4,3.9l-.8.1-.7.1-1.5.2c-5.9.6-10.1.7-13.3.8s-5.5,0-7.7-.1l-3.5-.2c-1.3-.1-2.6-.2-4.2-.4s-3.4-.4-5.6-.7-4.7-.8-7.6-1.5c-2.1-.4-4-1-5.5-1.4s-2.9-.9-4.1-1.3-2.2-.7-3.2-1.1l-2.7-1.1c-1.8-.6-3.5-1.4-5.8-2.4q-1.8-.75-3.9-1.8c-1.4-.7-3.2-1.5-5.1-2.6l-5.1-2.8-3.6-2.2c-1.1-.7-2.3-1.3-3.6-2.2l-4.9-3.4c-.6-.4-2.9-2.3-5.1-4.2s-4.4-4.1-4.9-4.6-1.3-1.4-2.4-2.6-2.4-2.6-3.6-4-2.6-2.9-3.5-4.1a33,33,0,0,0-2.2-2.7,80.33,80.33,0,0,1-10.4-14.3,42.53,42.53,0,0,1-3.9-9.9C907.9,219.88,908.3,217.88,909.8,217.38Z"/><path class="cls-1" d="M863.1,28.38c-.1-2.4,0-5.2,1.3-6,.1,0,.4.69.6.69,2.6.2,4.4.6,5.4.7a31.17,31.17,0,0,1,4.4.9c1.5.6.6.8,2,1.5.9.5,1.4.2,2.4.6a27.49,27.49,0,0,1,3.3,2.3,7,7,0,0,0,2.4,1.3c1.2.4,1.5,1.6.2,4.2a36.31,36.31,0,0,1-4.7,4.9c-1.5,1.2-1.1.2-1.1-.5a3.21,3.21,0,0,0-.8-3.1c-1.5-1.2-1.9-.8-3.6-1.6a20.13,20.13,0,0,0-2.5-1.4c-1.4-.4-1.2.1-2.6-.2-1-.2-.8-.4-1.8-.4-.6,0-.7.2-1.3.4h-.8a1.16,1.16,0,0,0-1-.2C864.7,32.48,863.1,34.78,863.1,28.38Z"/><path class="cls-1" d="M770,49.18a4.12,4.12,0,0,1-3.6-.3c-1.1-.8-2.1-2.4-2.4-5.1,0-.4.8-1.8.9-2.8a59.06,59.06,0,0,1,3.3-14.4c.4-1,.8-1.8,1.1-2.7a12.4,12.4,0,0,1,1.2-2.3c.6-1.3,1.4-2.5,2.1-3.7l.8-1.3c.3-.4.6-.8.8-1.1l1.6-2.1c1.2-1.3,2.2-2.4,3.4-3.5a25.31,25.31,0,0,1,3.9-3.1,28.19,28.19,0,0,1,4.8-2.7c.8-.4,1.5-.7,2.1-1a5.62,5.62,0,0,1,1.5-.4,13.64,13.64,0,0,1,1.7-.4c.5-.1,1-.2,1.7-.3l1.5-.3a17,17,0,0,1,2.2-.4c1.2-.2,2.2-.4,3-.5l2.4-.4,2.4-.31a17.82,17.82,0,0,1,3.1,0,43,43,0,0,1,8.8,1.41c2.3.59,4.6,1.3,8.4,2.59,3.5,1.31,7.3,2.7,10.8,4.31,4.6,2,8,5.5,8.9,10,.3,1.69-3.5,4.4-4.9,4.69-2.3.41-3.6-1.8-4.8-3.3a24.71,24.71,0,0,0-10.8-7.7,40.35,40.35,0,0,0-9.6-2.69,63.48,63.48,0,0,0-9.7-.81,33.42,33.42,0,0,0-13.6,2.2,22.11,22.11,0,0,0-3.4,1.8c-.7.5-1.3.91-1.8,1.31a11.37,11.37,0,0,0-1.6,1.5l-1.2,1c-.5.4-.9,1-1.5,1.6-3.2,3.69-3,3.09-5.4,7.4a9.87,9.87,0,0,0-1,2.7c-.2.7-.4,1.5-.7,2.8,0,.2-.3,1-.5,1.8s-.4,1.7-.5,1.8a21.06,21.06,0,0,0-1.1,5,43.22,43.22,0,0,1,0,5.09C774,47,773.2,49.08,770,49.18Z"/><path class="cls-1" d="M602,79.08a2.59,2.59,0,0,1,1.5-3.3c.1,0,.2-.1.3-.1,1.8-.8,5.3-1.2,10.9-.2,1,.4,2,.8,3,1.3l2.7,1.8a4.71,4.71,0,0,0-1.5-1.3,3.55,3.55,0,0,0-.9-.4h-.1l.2.1.3.2.6.3c.4.2.8.3,1.2.5a118.11,118.11,0,0,1,15.2,6.2c1.1.6,2.2,1.1,3.3,1.7l3.1,1.8c1,.6,2,1.2,2.9,1.8l2.7,1.8a138,138,0,0,1,15,12.5c4.3,4.1,7.7,7.8,10.9,11.4.4.4.8.9,1.2,1.3l.3.3.1.2h0l.2.2c.1.1.2.3.3.3,0-.2.1-.4.1-.6h0l.4-1.1c.3-.7.5-1.4.8-2,.5-1.2.9-2.1,1.3-2.9a25.8,25.8,0,0,1,1.8-3.2c.5-.8,1.1-1.6,1.9-3.1a71.88,71.88,0,0,1,4.5-6.3,102.38,102.38,0,0,1,7.6-8.5,56.08,56.08,0,0,1,8.9-7.2,57.82,57.82,0,0,1,9.9-5.1,39.86,39.86,0,0,1,4.1-1.4c1.3-.4,2.6-.6,3.9-1a25.68,25.68,0,0,1,4-.6,30.43,30.43,0,0,1,4.4-.3,95.8,95.8,0,0,1,10.7.5l11.8,1.2,3,.3h.5a.9.9,0,0,0,.5-.1.1.1,0,0,0,.1-.1l-.2-.2a.3.3,0,0,1,0-.4v-.1h0v-.2a12.1,12.1,0,0,1-.1-1.9,20.48,20.48,0,0,1,.1-3.5,17,17,0,0,1,5.6-10.9c1.3-1.1,2.6-.4,3.5.8a8.18,8.18,0,0,1,1.8,3.6c.4,3.3-1.3,6.4-.9,10.3a9.36,9.36,0,0,0,.4,1.6c.1.3.1.5.2.8l.4.8.4.8.6.9.6.9.7,1c1.9,2.6,4.1,5.5,6.3,8.3a13.06,13.06,0,0,0-2.3-.3h-1.3l-.7-.2-5.1-1.2c-3.4-.8-6.6-1.5-9.7-2l-3.7-.6-2.9-.5c-1.9-.3-3.9-.5-5.8-.7-10.8-1.3-16.2-1.1-21.4.3-1.3.4-2.6.7-3.9,1.2-.7.3-1.4.5-2.1.8l-2.2,1a61.58,61.58,0,0,0-21.5,17.4,52.47,52.47,0,0,0-7.7,13.4q-.45,1.35-.9,2.4a6.89,6.89,0,0,1-.3.8l-.3.89-.5,1.71c-.3,1.09-.5,2.2-.7,3.2l-.5,3c-.6,3.8-1,6.5-1.3,9-.3,0-.8-.8-1.2-1.3l-1.3-1.7-3.1-4c-.6-.8-1.2-1.6-1.9-2.5s-1.4-1.8-2.2-2.8l-1.3-1.6-1.3-1.6c-.6-.7-1.2-1.4-1.9-2.2-3.9-4.4-5.7-6.2-7.4-8a92.19,92.19,0,0,0-7.9-7.4,66,66,0,0,0-10.9-7.5,67.17,67.17,0,0,0-7.4-4.2c-.9-.3-2.9-1.6-5.2-2.6s-4.5-2.1-5.3-2.4c-.3-.1-1.2-.3-2.5-.7l-2.1-.6-1.2-.3-.6-.1-.3-.1H615l-.3-.1-.5-.2a4.57,4.57,0,0,1-1.7-1.4l2.5,1.7a67.18,67.18,0,0,1-9-2.8C603.2,82.48,601.5,81.08,602,79.08Z"/><path class="cls-1" d="M559.5,72.18c-2.4-.4-5.1-1.2-5.3-3.4,0-.2.8-.4,1-.7a19.45,19.45,0,0,1,5-7.3,33.57,33.57,0,0,1,2.9-2.4,14.36,14.36,0,0,1,3.3-1.6c2.5-.7,1.4.1,3.9-.2,1.6-.1,2-.7,3.7-.6a15.44,15.44,0,0,1,3,.4c.8.2,1.6.4,2.9.8a27.44,27.44,0,0,0,3.9.9c1.7.2,2.8,1.7,2.3,4.6-.2,1.1-2.9,4.9-3.6,5.7-1.3,1.4-1.3.3-1.5-.4a4,4,0,0,0-2.5-3.1,7.46,7.46,0,0,0-2.6-.4l-2.6.2a14.52,14.52,0,0,0-3.6.2,2.58,2.58,0,0,0-1.3.8,5.24,5.24,0,0,1-1.1,1c-.9.7-.9.4-1.7,1.4-.4.5-.2.7-.3,1.4a3,3,0,0,1-.4.8,3.59,3.59,0,0,0-.7,1c0,.1.4.9,0,1.3S562.7,73,559.5,72.18Z"/><path class="cls-1" d="M570,85.88a25,25,0,0,1-5.3-3s.7.2.7.1a8.86,8.86,0,0,0,.8-1.7c.2-.6,0-1,.4-1.5s.7,0,1-.4-.2-.6,0-.9c.3-.6.6-.6.9-1.1a1.18,1.18,0,0,0,.1-1c-.2-.5.6-.5,3.1.4,1,.4,5.1,2.4,6,3,1.6.9.7.7.1.6-1.3-.2-2-.1-2.3.2-.5.7,0,1-.3,1.8-.1.4-.7.6-.8,1s.2.6,0,1.3-.3.3-.4.8c0,.3.2.4.3.8,0,0,0,.3-.1.3s-.4.3-.3.4S575.8,88.78,570,85.88Z"/><path class="cls-1" d="M565.9,100.68c-1.5-1.9-3.1-4.1-3.2-5.1,0-.1.6.4.6.4.7-.5,1.3-1,1.9-1.5s.8-1,1.4-1.5.7.2,1.3-.1c.4-.2.2-.7.6-1,.7-.5.9-.4,1.6-.9a1.45,1.45,0,0,0,.7-1c.1-.7,1-.4,2.9,1.6,1.5,1.7,2.8,3.5,4.1,5.3,1,1.6.2,1-.4.7q-1.8-1-2.4-.6c-1,.6-.7,1-1.6,1.8-.4.4-1.1.4-1.5.8-.6.6-.2.8-.8,1.4s-.5.2-.9.7c-.2.3-.1.5-.2,1,0,.1-.3.3-.3.3s-.6.2-.6.3C569.3,103.18,569.9,105.78,565.9,100.68Z"/><path class="cls-1" d="M649.2,188.38c-1.5,2-4.2,3.1-7.9.1-.3-.2-.5-1.6-1.1-2.31-6.4-7.6-11.1-12.69-13.8-15.6-4.6-4.9-7.4-7.3-12-12.09-4.2-4.2-1.8-2.6-6-6.8-2.9-2.8-4-3.1-7.1-5.8-5.6-4.8-6.7-6.9-10.9-11.9a26.92,26.92,0,0,0-7.1-6,18.55,18.55,0,0,1-8-7.9c-.7-1.4,1.8-5.4,3.1-6,2.3-1,4.6,1.1,6.1,2.7,3.4,3.5,6.9,7,10.1,10.4,1.7,1.8,3,3.3,4,4.5a27.09,27.09,0,0,0,2.7,2.9c1.7,1.7,3.5,3.1,7.2,6.3s7,6.9,10.5,10.3c5.1,5.1,4.2,3.5,9.4,8.7,3.7,3.9,3,3.4,6.7,7.3a61,61,0,0,0,4.6,4.1,38.48,38.48,0,0,1,2.7,3c.4.6,2.9,3.6,3.4,4.1S654.4,184.48,649.2,188.38Z"/><path class="cls-1" d="M684.6,288.68c-1.6,1.89-4.2,3.1-7.5.3-.2-.2-.3-1.5-.8-2.1-5.2-7.11-8.5-12.31-10.4-15.31a131,131,0,0,1-7.7-13.1c-2.3-4.8-.7-2.7-2.9-7.6-1.4-3.3-2.3-4-3.6-7.4-2.3-5.9-2.5-7-4.4-13-.9-2.9-1.8-5.8-2.9-8.6a11.37,11.37,0,0,1,.5-10.6c.8-1.3,5.5-1.5,6.7-1,2.1.9,1.6,3.2,1.5,4.8a31.42,31.42,0,0,0,1.1,11.4,57.66,57.66,0,0,0,2.9,7.9l3.4,7.7c1.6,3.7,2.9,7.6,4.8,11.2,2.9,5.4,2.5,3.9,5.6,9.1,2.3,3.8,1.8,3.4,4.3,7.1a30.92,30.92,0,0,0,3.3,3.9c.2.3,1.8,2.4,2,2.7a30,30,0,0,0,2.5,3.7C683.1,280.28,689.7,284.78,684.6,288.68Z"/><path class="cls-1" d="M901.4,246c-2.4.6-5.1,1.1-6.1.6-.1,0,.6-.4.6-.5-.2-1-.5-2.1-.8-3.1a24.43,24.43,0,0,1-1-2.4c-.2-.9.4-.6.2-1.5-.1-.6-.7-.6-.9-1.2-.4-1-.2-1.3-.6-2.3a2.38,2.38,0,0,0-.9-1.3c-.7-.4-.2-1.3,2-2.9a37.56,37.56,0,0,1,6.2-2.7c1.8-.5,1.1.3.7.8a3.31,3.31,0,0,0-.9,2.8c.5,1.5,1,1.5,1.6,2.9.3.7.2,1.6.5,2.4.5,1.1.7.7,1.2,1.8.3.8,0,.8.4,1.6.2.4.5.4.9.8a1.42,1.42,0,0,1,.2.6,1.41,1.41,0,0,0,.1.9C905,243.57,907.7,244.57,901.4,246Z"/><path class="cls-1" d="M907.3,672.27c-1.1-1.2-.8-2.59,2.2-3.59,1.5-.6,3.6-1.21,6.4-2.1a33.36,33.36,0,0,0,4.4-1.7,21.34,21.34,0,0,0,4.6-2.7,23.56,23.56,0,0,0,2.5-1.91,8.66,8.66,0,0,0,2.2-3.5,18.76,18.76,0,0,0,.7-6.3c0-1.09-.2-2.29-.3-3.4a23.34,23.34,0,0,0-.6-3.5A128.71,128.71,0,0,0,926,630c-2.6-8.7-5.4-16.79-7.7-23.9s-4.8-13.4-7-19c-1.1-2.7-2.1-5.3-3.1-7.7-.3-.8-.7-1.6-1-2.4l-.8-1.5-.3-.8c-.1-.1,0-.3,0-.4l.1-.4c.7-1.7,1.3-3.3,1.9-4.8,5.1-13.6,8.6-24.29,11.7-35.2s5.8-21.8,8.5-36c1.3-6.4,1.9-10.5,2.5-13.3s.9-4.5,1.2-6.2.6-3.4,1-6.2,1.1-7,1.6-13.5c.9-8.8.9-14.4,1.1-20,.1-2.8,0-5.6,0-8.8s.1-6.8,0-11.2c-.3-7.7-.3-13.8-.7-19.1-.2-2.6-.3-5.1-.5-7.4-.1-1.2-.2-2.3-.2-3.5l-.3-3.4c-.5-4.5-.9-9-1.6-14.2s-1.6-11.3-3.1-18.9c-1.3-7.3-3-14.5-4.8-21.6s-3.9-14.2-6.3-21.2c-2.7-7.9-5.2-15.4-7.7-22.5-1.2-3.6-2.3-7.1-3.4-10.5-.5-1.7-1-3.4-1.5-5-.2-.8-.5-1.6-.7-2.5l-1.2-3.6,1-1.9.5-.9c.2-.3.3-.6.4-.7l1.4-2.2c3.1-4.7,5.8.8,5.3,4.9v.4l.1.1.2.2h.3s0-.1.2.2c.4.8.9,1.7,1.3,2.6q1.2,2.7,2.4,5.7c1.5,3.9,2.7,8,3.8,11.5,5.6,18.2,10.8,37.7,14.9,57,4.3,20.7,5.4,31.9,6.9,43,.4,2.79.6,5.6.8,8.6s.5,6.1.8,9.5.3,7.2.4,11.4c0,2.1.2,4.29.2,6.7v7.5a403.63,403.63,0,0,1-6.1,63c-2.8,15.6-4.2,21.4-5.4,27.3-.7,2.89-1.4,5.79-2.4,9.89-.5,2.11-1.2,4.4-1.9,7.21-.4,1.4-.8,2.9-1.3,4.5s-1,3.4-1.6,5.29c-3.4,11-5.3,15.71-7,20.4-.4,1.21-.9,2.4-1.4,3.6l-1.6,4-.2.4-.1.21v.2l.8,1.8c.8,2,1.8,4.29,2.9,7l5,12.39c1.3,3.21,2.6,6.4,4.8,12.51.6,1.7,5,14.7,5.4,16.6.5,1.59,1.9,6.4,3.1,11.4a82.76,82.76,0,0,1,2.1,12.1c0,.2.1.59.1,1.2a13.29,13.29,0,0,1,.1,2.09,13.1,13.1,0,0,1,0,2.8c-.1,1.2-.2,2.41-.4,3.5a21.39,21.39,0,0,1-3.6,8.2,20.3,20.3,0,0,1-7.4,6.21,29.42,29.42,0,0,1-15.2,3.09C909.3,675.08,907,673.88,907.3,672.27Z"/><path class="cls-1" d="M689.1,363.38c-2.3.8-5.1,1-6.5-1.4-.1-.2.5-1,.4-1.4-1-5.3-1.5-9.1-1.8-11.3-.6-3.1-.9-6.2-1.2-9.3-.1-3.3.5-1.7.4-5,0-2.2-.5-2.8-.5-5,0-3.9.3-4.5.5-8.4a52.3,52.3,0,0,0,0-5.6c-.2-2.4.7-4.5,3.6-5.9,1.1-.5,5.6.5,6.7,1.1,1.7,1,.6,2.2,0,3.1a13.72,13.72,0,0,0-2.5,6.7c-.4,4.9.1,5.3.2,10.3.1,2.5-.3,5,0,7.4.3,3.7.6,2.8,1.1,6.4.4,2.7.1,2.3.6,5a12.13,12.13,0,0,0,1.1,3,14.16,14.16,0,0,1,.4,2,12.41,12.41,0,0,0,.3,2.7C692.1,358.07,695.4,362.07,689.1,363.38Z"/><path class="cls-1" d="M682.4,516.18c-1.9,1.6-4.9,2-8-3.21-.2-.4-.1-2.1-.5-3.1a145.2,145.2,0,0,1-6.7-25.1c-.7-4.1-1.1-7.3-1.4-10.6a76,76,0,0,1-.4-10.7,25.49,25.49,0,0,1,.2-3.9c.1-.8.2-1.3.3-1.8.2-1,.3-1.9.8-5.7.2-2.6.4-4.1.5-5.7,0-.8.1-1.6.2-2.6s.3-1.9.5-3.2c.4-2.2.8-3.9,1.2-5.4s.7-2.7,1.1-4c.7-2.5,1.5-4.9,3-9.1s3-8,4.4-11.9c1.8-5.1,4.9-9.2,9.3-11.2,1.7-.8,5,2.6,5.4,4,.7,2.4-1.6,4.5-3.1,6.2a42.92,42.92,0,0,0-8,13.3l-1.3,3.5c-.3,1.1-.6,2-.9,2.9-.6,1.7-.8,3.2-1.2,4.6-.7,2.9-1.2,5.8-2.2,11.3a131.79,131.79,0,0,0-1.9,16.6c0,2.4.1,4.9.3,7.3.2,1.6.3,3.1.8,7.3.3,3,.5,4.3.6,5.6a36.58,36.58,0,0,0,1,5.6,21.85,21.85,0,0,0,1,3.4l1.3,3.3c.1.5,1.2,3.9,1.3,4.4a38.59,38.59,0,0,0,1.7,5.8,34.65,34.65,0,0,1,2.6,5.5C685.2,512.18,685.4,515,682.4,516.18Z"/><path class="cls-1" d="M637.4,652.27c-2.3.91-5.3.41-6.6-5.59-.1-.41.6-2.1.5-3.1a122.19,122.19,0,0,1,1.9-26.3c.7-4.2,1.5-7.4,2.2-10.6a94.85,94.85,0,0,1,3.3-10.3c3-7.1,2-3.5,5.3-10.3,1.3-2.2,1.9-3.8,2.6-5.2a41.6,41.6,0,0,1,2.8-5.1,83.86,83.86,0,0,1,5.7-8c.8-1,1.7-2,2.6-3.2a55.75,55.75,0,0,1,3.7-4.2c2.9-3.2,5.9-6.3,8.8-9.4,3.8-4,8.3-6.6,13.2-6.7,1.9,0,3.6,4.4,3.3,5.9-.4,2.6-3.3,3.5-5.3,4.5a40.92,40.92,0,0,0-12.7,9.2,70,70,0,0,0-7.3,9c-.8,1.3-1.6,2.5-2.6,4l-1.6,2.6c-.6,1-1.3,2-1.9,3.2a104.5,104.5,0,0,0-7.8,14.8c-.8,2-1.2,3.4-1.6,4.4a11.34,11.34,0,0,0-.7,2.6c-.3,1.6-.8,3.1-1.8,7.2a85.26,85.26,0,0,0-2.2,11.2,41.84,41.84,0,0,0-.2,7.1c0,.5-.2,4.1-.2,4.6a41.47,41.47,0,0,0-.2,6.1,30.69,30.69,0,0,1,.7,6C641.3,649.38,640.6,652,637.4,652.27Z"/><path class="cls-1" d="M556.1,763.47a3.56,3.56,0,0,1-3.7-.29c-1.2-.8-2.3-2.6-2.9-5.91-.1-.5.6-2.3.6-3.4a76.41,76.41,0,0,1,1.9-17.8,60.27,60.27,0,0,1,3.7-11.1,65.35,65.35,0,0,1,3-5.9,40.1,40.1,0,0,1,3.4-5,75.67,75.67,0,0,1,8.3-8.7,45.37,45.37,0,0,1,4.8-3.9,43.7,43.7,0,0,0,4.8-3.7c4.1-3.5,4.9-4.8,9.1-8.2,7.2-6,8.6-6.8,15.9-12.7,3.5-2.8,7-5.7,10.2-8.8a28.48,28.48,0,0,1,2.6-2.3l.1-.1h.4c.5.8.9-3.7,2.2-6.1.8-1.8,5.6-1.1,6.8,0a4.75,4.75,0,0,1,1.5,3.6c0,1.1.1,2.1.1,3.2V670l-.1.1-3.4,2.2-.8.5-.4.3-.2.1-.1.1-1,.5c-1.3.7-2.6,1.5-3.8,2.3-2.5,1.6-4.9,3.4-7.2,5.1-9.8,7.8-10.1,8.7-19.7,16.8-4.8,4.1-9.8,7.8-14.4,12a62.52,62.52,0,0,0-5.7,5.8,67.19,67.19,0,0,0-4.7,6,36,36,0,0,0-2.9,5,37.62,37.62,0,0,0-2.3,5.5,23.69,23.69,0,0,0-.9,3.6c-.2,1-.2,1.9-.5,3.7,0,.3-.2,1.3-.4,2.4s-.3,2.1-.4,2.4-.3,1.8-.5,3.2c-.1,1.1-.2,2.2-.2,3.3.3,2.1.5,4.3.6,6.5a14.92,14.92,0,0,1-.2,2.1,6,6,0,0,1-.6,1.9A3.08,3.08,0,0,1,556.1,763.47Z"/><path class="cls-1" d="M562.2,780.88c-2.4,0-5.1-.41-6-1.7,0-.1.7-.41.7-.6.3-2.6.5-4.5.6-5.5a35.7,35.7,0,0,1,.4-4.6c.3-1.6.7-.7,1.1-2.3.3-1.1-.2-1.4.1-2.5a29.72,29.72,0,0,1,1.3-3.9,6.26,6.26,0,0,0,.3-2.7c-.1-1.3.9-2.1,3.8-2.1a34.26,34.26,0,0,1,6.4,2.1c1.6.9.6,1.2-.1,1.5a4.52,4.52,0,0,0-2.8,2.6c-.7,2.29-.2,2.59-.7,4.9-.2,1.2-.8,2.2-1,3.4-.2,1.8.2,1.4.1,3.1a9.86,9.86,0,0,0-.3,2.4c0,.7.2.8.5,1.5v1a2.77,2.77,0,0,0-.3,1.3C566.4,779,568.6,781.38,562.2,780.88Z"/><path class="cls-1" d="M576.7,790.27c-2.3.7-5,1.41-6,1-.1,0,.6-.4.6-.5-.3-1.4-.5-2.4-.6-2.9a10.55,10.55,0,0,1-.6-2.4c0-.9.6-.5.6-1.4,0-.6-.5-.7-.5-1.3s.2-1.5.3-2.2a2.06,2.06,0,0,0-.3-1.5c-.4-.7.4-1.2,3.1-1.3,2.2.2,4.5.5,6.7.9,1.8.4.8.5.3.7-1.3.3-2,.8-2,1.3-.2,1.1.3,1.1.5,2.2.1.5-.3,1.1-.2,1.6.2.8.5.5.7,1.3.2.5-.1.5.2,1,.1.3.4.3.8.5a1.47,1.47,0,0,1,.2.4c0,.1-.1.5,0,.6C580.3,788.27,582.8,788.58,576.7,790.27Z"/><path class="cls-1" d="M730.6,699.18a4.7,4.7,0,0,1-3.6-.6,5.83,5.83,0,0,1-2.2-4.6c0-.4.8-1.6.9-2.4a73,73,0,0,1,5.7-20.4c.3-.8.7-1.5,1-2.21l1-2c.6-1.29,1.3-2.4,1.9-3.59s1.4-2.3,2.2-3.5,1.8-2.5,2.8-3.7a23.91,23.91,0,0,1,2.2-2.3c.4-.3.8-.7,1.2-1,.7-.5,1.3-1,3.6-3l3.4-3.2c.5-.41,1-.91,1.5-1.41s1.3-1,2.1-1.59a20.86,20.86,0,0,1,2.1-1.41l1.8-1c1.1-.59,2-1.09,3-1.59l3-1.41c1.1-.4,2.5-1,4.1-1.7,3.2-1.3,6.5-2.3,9.7-3.4,4.2-1.4,8.4-1.3,11.8,1.2,1.3,1,.6,5.6-.1,6.8-1.2,1.9-3.4,1.3-5.1,1a25.28,25.28,0,0,0-11.9,1.1,38.75,38.75,0,0,0-8,3.7c-2,1.2-3.9,2.5-7.3,4.9a59.62,59.62,0,0,0-9.6,8.5,29.1,29.1,0,0,0-3.2,4.6l-2.8,4.9c-1,2.1-1.6,2.9-2,3.9a28.26,28.26,0,0,0-1.7,4,11.07,11.07,0,0,0-.7,2.6c-.1.7-.2,1.4-.4,2.7a16.47,16.47,0,0,1-.4,1.7c-.2.8-.3,1.5-.4,1.7a24.24,24.24,0,0,0-1,4.5,23.58,23.58,0,0,1-.1,4.6,4,4,0,0,1-4.3,3.8C730.8,699.18,730.7,699.18,730.6,699.18Z"/><path class="cls-1" d="M585.3,795.18c-2.1-1.41-2.7-4.41,3-9.8.4-.41,2.6-1,3.7-1.8,13.4-9.7,23.1-16.1,28.7-19.7,4.7-3,8.4-5.41,12.1-7.7s7.5-4.5,12.6-7.1a47.06,47.06,0,0,1,7.3-3.1c.7-.2,1.3-.4,2.4-.8s2.7-1,5-1.8c6.3-2.4,7.7-3.6,14-6,5.5-2.2,8.7-3.4,11.9-4.6s6.4-2.4,11.8-4.6a55.8,55.8,0,0,0,6.9-3.5,45.08,45.08,0,0,0,6-4.8c4.7-4.6,8.9-8.7,14.1-11.6,2-1.1,5.1,2.6,5.1,4.5,0,3.3-3.6,6.4-6.2,8.5A105.07,105.07,0,0,1,704,734c-3.7,1.7-6.6,2.8-9,3.9l-6.3,2.6c-3.9,1.6-7.7,3.3-15,6.3q-5.55,2.25-11.1,4.2c-1.9.7-3.6,1.3-5.4,2.1s-3.5,1.5-5.3,2.4a97.54,97.54,0,0,0-9,4.9c-1.8,1.2-3.7,2.4-8.7,5.4-3.6,2.3-5.2,3.2-6.8,4.2s-3.1,1.9-6.7,4.3a91,91,0,0,0-7.8,6.1c-.5.4-4.7,3.4-5.3,3.8-1.1.7-6.2,4.1-7.2,4.9a49.49,49.49,0,0,1-6.7,5.4C590.5,796.58,587,798,585.3,795.18Z"/><path class="cls-1" d="M885.1,664.27c-.6,2.41-2.3,4.6-6.2,3.91-.3,0-.9-1.1-1.5-1.5-7.1-3.5-12.1-6-14.9-7.5-4.7-2.5-7.5-3.71-12.1-6.41-4.1-2.5-1.8-1.8-5.9-4.2-2.7-1.6-3.7-1.6-6.4-3.1-4.8-2.59-5.5-3.2-10.4-5.5a38.19,38.19,0,0,0-7.4-2.59,10.2,10.2,0,0,1-7.4-5.8c-.6-1.3,1.5-5.5,2.6-6.3,1.8-1.4,3.5.2,4.7,1.3a42,42,0,0,0,9.2,5.8c3.5,1.59,5.4,2.4,7.2,3.2a67.37,67.37,0,0,1,7.2,3.4c3.4,1.8,6.4,4.1,9.7,5.9,4.9,2.7,3.9,1.7,8.8,4.4,3.6,1.9,3,1.8,6.7,3.6a29.8,29.8,0,0,0,4.5,1.6,23.94,23.94,0,0,1,2.8,1.3,31.25,31.25,0,0,0,3.6,1.9C880.5,657.77,887.9,658.58,885.1,664.27Z"/><path class="cls-2" d="M859.9,89.08c3.2-7.5,10.8-9.9,12.1-10.3A20.52,20.52,0,0,1,886.2,80a26.24,26.24,0,0,1,5.1,3,27.2,27.2,0,0,1,7.4,8.8,21.58,21.58,0,0,1,1.7,3.4,40,40,0,0,1,1.7,20.3,1.7,1.7,0,0,1-1.4,1.4,46.3,46.3,0,0,1-30.1-4.9,28,28,0,0,1-5-3.1,18.14,18.14,0,0,1-6.8-10.3A16.13,16.13,0,0,1,859.9,89.08Z"/><path class="cls-3" d="M859.6,89.18c.6-.1,1,.2,1.2,1.2s-.1,2.6.1,5.3a12.19,12.19,0,0,0,0,2.7,13.71,13.71,0,0,0,3.9,6.8,17.88,17.88,0,0,0,1.4,1.3l.7.6.7.5a27.55,27.55,0,0,0,2.9,1.7,53.8,53.8,0,0,0,9.5,4.2,38,38,0,0,0,10.6,1.8,41.7,41.7,0,0,0,5,0,12.41,12.41,0,0,0,2.7-.3l1.4-.2h.3v-.1a10.4,10.4,0,0,0,.2-1.5c.1-.4.1-.9.2-1.2.1-.7.1-1.1.2-1.6a25.28,25.28,0,0,0,0-5.5,28.67,28.67,0,0,0-1.1-5.7,22.5,22.5,0,0,0-.8-2.4,13.9,13.9,0,0,0-1.2-2.8,34.86,34.86,0,0,0-5.5-7.7,26.63,26.63,0,0,0-3.1-2.6,30.35,30.35,0,0,0-4.7-2.5,18,18,0,0,0-11.9-.4,26.23,26.23,0,0,0-6.4,3.4,24.54,24.54,0,0,0-4.7,4.4c-1.1,1.3-2.4-.5-2.2-2a7.63,7.63,0,0,1,2.1-3.7,19.9,19.9,0,0,1,3.6-2.9,25.38,25.38,0,0,1,8.8-3.3,23,23,0,0,1,9.4.5,35.23,35.23,0,0,1,4.2,1.5,18.69,18.69,0,0,1,3.1,1.7,24.78,24.78,0,0,1,4.5,3.5,25.43,25.43,0,0,1,3.7,4.3c.6.9,1.3,1.9,1.9,2.9a21.35,21.35,0,0,1,2,4,40.73,40.73,0,0,1,1.6,19.3c-.1.6-.2.9-.2,1a3.11,3.11,0,0,1-1.1,1.9,2.87,2.87,0,0,1-1.8.7,9.54,9.54,0,0,1-2.1.3,17.83,17.83,0,0,1-3,.3,45.92,45.92,0,0,1-8.3-.1,48.24,48.24,0,0,1-6.5-1.3q-3.15-.9-6.3-2.1c-1.8-.8-2.8-1.3-3.8-1.7s-1.8-.9-3.6-1.8c-.8-.5-1.6-1-2.4-1.6-1-.8-1.9-1.6-2.1-1.8a34.67,34.67,0,0,1-2.5-2.9,21.69,21.69,0,0,1-1.9-3.3,20.29,20.29,0,0,1-1.1-2.6,13.75,13.75,0,0,1-.6-4.9,11.1,11.1,0,0,1,1.2-4.4C858.4,89.28,859.1,88.78,859.6,89.18Z"/><ellipse class="cls-4" cx="879.31" cy="94.83" rx="2.5" ry="2.8" transform="translate(284.28 749.13) rotate(-53.87)"/><path class="cls-4" d="M881.7,96.58l-1.2-.9a2.18,2.18,0,0,0-.8-.5h.2a.55.55,0,0,0-.2-.5,1.38,1.38,0,0,0-.4-.3h-.5c-.1,0-.2-.2-.3,0s.2.2.2.3a1.26,1.26,0,0,0,.4.7.45.45,0,0,0,.5,0c.1-.2,0,.2,1.2.7.4.2,2,1.3,2.1,1.9.3.9-.8,1.2-1.4,1.2a8,8,0,0,1-3.4-.7,5.86,5.86,0,0,1-1.9-1.3,3.6,3.6,0,0,1-1.1-2.1,3.77,3.77,0,0,1,1.4-3.3,6.38,6.38,0,0,1,1.4-.8,3,3,0,0,1,1.6-.2,5.27,5.27,0,0,1,1.2.3,8.79,8.79,0,0,1,1,.6,14.63,14.63,0,0,1,1.3.9,4.05,4.05,0,0,1,.5.9c.1.5.2,1,.3,1.4a2,2,0,0,1,0,1.5C883.5,97.08,882.7,97.38,881.7,96.58Z"/></g></g></g></g></svg>