<?xml version="1.0" standalone="no"?>
<!DOCTYPE svg PUBLIC "-//W3C//DTD SVG 20010904//EN"
 "http://www.w3.org/TR/2001/REC-SVG-20010904/DTD/svg10.dtd">
<svg version="1.0" xmlns="http://www.w3.org/2000/svg"
 width="1080.000000pt" height="1080.000000pt" viewBox="0 0 1080.000000 1080.000000"
 preserveAspectRatio="xMidYMid meet">
<metadata>
Created by potrace 1.14, written by Peter Selinger 2001-2017
</metadata>
<g transform="translate(0.000000,1080.000000) scale(0.100000,-0.100000)"
fill="#000000" stroke="none">
<path d="M3708 10795 c-2 -2 -23 -5 -48 -8 -118 -15 -277 -85 -391 -173 -131
-101 -292 -289 -379 -442 -70 -125 -139 -319 -165 -467 -3 -16 -7 -41 -9 -55
-3 -14 -10 -61 -15 -105 -10 -71 -15 -126 -26 -270 -5 -53 -5 -559 -1 -610 2
-22 6 -87 10 -145 4 -58 9 -116 11 -130 2 -14 7 -54 10 -90 3 -36 8 -76 10
-90 2 -14 7 -45 10 -70 3 -25 10 -70 15 -100 5 -30 11 -71 14 -90 7 -46 25
-136 60 -315 2 -11 16 -72 31 -135 14 -63 28 -122 30 -130 14 -61 78 -308 95
-365 12 -38 23 -79 25 -89 3 -11 11 -40 19 -65 8 -25 33 -107 57 -181 45 -144
124 -373 165 -479 14 -35 24 -64 22 -66 -2 -1 -55 -29 -118 -62 -629 -330
-1118 -783 -1458 -1350 -50 -82 -124 -228 -203 -398 -17 -38 -80 -211 -111
-305 -71 -219 -144 -543 -163 -725 -4 -33 -8 -71 -11 -85 -6 -38 -17 -276 -17
-360 0 -85 13 -332 18 -340 1 -3 6 -32 10 -65 15 -132 60 -338 107 -485 133
-417 327 -741 622 -1035 175 -175 352 -310 589 -449 73 -43 310 -157 412 -199
163 -67 454 -161 585 -190 113 -25 149 -31 260 -42 30 -3 69 -8 85 -10 109
-16 379 -20 1490 -20 1252 0 1430 3 1660 30 22 3 63 7 90 10 28 3 57 8 65 10
8 3 33 7 55 10 244 37 831 262 1065 410 22 14 43 25 46 25 4 0 22 11 40 25 18
14 35 25 39 25 5 0 215 148 225 159 3 3 32 28 65 56 372 307 640 718 790 1211
34 113 80 306 89 377 3 18 7 55 11 82 4 28 8 60 10 73 17 101 22 430 10 573
-13 152 -14 162 -20 208 -3 25 -8 63 -10 83 -4 32 -46 246 -61 313 -3 11 -7
29 -9 40 -3 11 -23 82 -45 157 -137 469 -315 825 -598 1191 -123 160 -293 337
-493 513 -20 17 -85 68 -145 113 -60 46 -116 88 -124 94 -80 63 -357 226 -537
316 -79 39 -143 74 -143 77 0 3 5 14 11 25 6 11 12 28 14 37 2 9 25 76 50 147
26 72 62 180 82 240 19 61 41 128 48 150 16 49 124 436 129 462 2 10 9 38 16
63 7 25 14 56 17 70 2 14 15 70 28 125 30 126 82 387 88 440 3 22 8 51 11 65
5 22 9 49 21 140 3 25 11 91 21 180 3 25 7 61 9 80 5 45 15 183 20 285 6 110
6 432 0 530 -9 150 -15 240 -19 265 -2 14 -7 48 -11 75 -13 103 -17 122 -37
210 -24 105 -68 233 -111 325 -26 55 -138 234 -156 250 -3 3 -26 30 -51 60
-250 305 -575 437 -898 366 -230 -51 -527 -263 -672 -480 -56 -84 -143 -251
-165 -316 -1 -3 -7 -18 -14 -35 -14 -33 -15 -36 -60 -179 -17 -54 -33 -110
-36 -123 -2 -14 -8 -39 -14 -56 -12 -38 -67 -312 -76 -377 -3 -25 -8 -56 -10
-70 -11 -63 -33 -243 -40 -325 -4 -38 -8 -81 -10 -95 -2 -14 -7 -68 -10 -120
-4 -52 -8 -117 -10 -145 -18 -257 -24 -931 -11 -1255 12 -286 24 -513 31 -575
2 -19 -5 -20 -234 -22 -130 0 -257 -3 -284 -6 l-47 -5 5 57 c4 57 11 155 20
311 23 409 24 1102 0 1450 -2 30 -7 104 -10 165 -4 60 -8 117 -10 126 -2 10
-6 53 -9 96 -4 43 -8 89 -11 103 -2 14 -6 50 -9 80 -3 30 -8 66 -10 80 -3 14
-7 41 -9 60 -3 19 -10 67 -16 105 -7 39 -14 84 -17 100 -10 65 -56 266 -86
370 -124 443 -278 694 -548 894 -108 80 -261 155 -368 181 -68 17 -254 34
-264 25z m222 -335 c156 -52 321 -176 430 -325 42 -57 150 -262 150 -285 0 -6
7 -24 15 -40 36 -69 143 -492 161 -635 2 -16 6 -48 9 -70 19 -121 24 -161 40
-320 3 -33 8 -76 10 -95 2 -19 7 -82 11 -140 3 -58 7 -121 9 -140 26 -274 21
-1160 -9 -1590 -3 -41 -8 -118 -12 -170 -3 -52 -9 -124 -13 -160 -11 -106 9
-161 72 -201 33 -21 78 -22 302 -2 99 8 458 8 598 -1 109 -7 120 -6 156 15 21
12 49 39 61 61 20 36 21 47 15 146 -4 59 -9 123 -10 142 -4 32 -7 83 -20 305
-23 379 -23 1167 0 1470 2 28 6 95 10 149 3 55 8 113 10 130 2 17 6 58 10 91
6 59 8 79 20 180 6 52 12 91 20 135 2 14 7 45 10 70 3 25 10 65 15 90 5 25 12
56 14 70 36 208 120 473 201 640 113 229 329 424 540 485 233 68 456 -38 665
-317 32 -42 72 -101 89 -131 31 -55 96 -215 105 -258 2 -13 9 -44 14 -69 6
-25 13 -61 16 -80 3 -19 8 -46 10 -60 44 -258 48 -777 10 -1135 -12 -113 -28
-236 -44 -340 -5 -33 -12 -78 -15 -100 -4 -22 -8 -47 -10 -55 -2 -8 -7 -31
-10 -50 -11 -67 -57 -276 -87 -400 -16 -69 -32 -132 -34 -140 -60 -255 -183
-644 -338 -1075 -32 -90 -29 -165 8 -230 24 -40 90 -105 108 -105 15 0 313
-148 403 -201 137 -79 410 -263 445 -299 3 -3 30 -25 60 -50 123 -100 317
-292 408 -405 32 -38 65 -79 74 -89 23 -26 160 -222 186 -266 93 -158 202
-367 202 -387 0 -3 7 -19 15 -36 91 -196 201 -591 240 -862 4 -22 8 -49 10
-60 1 -11 6 -56 10 -100 4 -44 9 -96 11 -115 5 -48 4 -356 -1 -405 -2 -22 -7
-68 -10 -103 -4 -35 -8 -73 -11 -85 -2 -12 -7 -42 -10 -67 -9 -71 -60 -278
-94 -381 -119 -358 -289 -635 -540 -882 -298 -294 -677 -512 -1165 -671 -144
-47 -263 -80 -328 -90 -118 -19 -149 -23 -257 -31 -47 -3 -103 -8 -125 -10
-111 -12 -578 -18 -1400 -19 -1214 -1 -1459 9 -1765 70 -103 21 -459 140 -605
203 -600 259 -1022 642 -1258 1141 -88 186 -173 442 -201 610 -2 14 -7 41 -10
60 -13 79 -16 98 -22 170 -3 41 -8 86 -10 100 -6 35 -5 332 1 405 12 142 19
203 45 350 117 660 389 1225 799 1659 307 324 610 546 1039 760 126 64 173
108 196 187 9 29 16 62 16 74 0 25 -26 116 -45 160 -58 132 -225 646 -298 915
-30 109 -94 363 -101 400 -2 14 -10 48 -16 75 -6 28 -14 60 -16 73 -2 12 -6
32 -8 45 -3 12 -10 47 -15 77 -6 30 -13 66 -16 80 -4 21 -23 132 -40 240 -8
51 -24 187 -31 260 -3 41 -8 86 -9 100 -21 165 -21 760 -1 867 2 10 7 50 10
88 23 235 100 470 203 618 224 323 474 450 723 367z"/>
<path d="M3733 2936 c-60 -20 -107 -51 -153 -103 -204 -232 -93 -628 192 -681
247 -47 456 203 405 483 -21 116 -106 233 -203 281 -67 33 -175 42 -241 20z"/>
<path d="M6730 2934 c-153 -56 -250 -203 -252 -383 -4 -349 358 -534 589 -302
194 195 144 551 -94 667 -70 35 -176 42 -243 18z"/>
</g>
</svg>
